Coordinates
version=1
nRows=11
nColumns=36
inDegrees=yes

Units are S.I. units (second, meters, Newtons, ...)
If the header above contains a line with 'inDegrees', this indicates whether rotational values are in degrees (yes) or radians (no).

endheader
time	pelvis_tilt	pelvis_list	pelvis_rotation	pelvis_tx	pelvis_ty	pelvis_tz	hip_flexion_r	hip_adduction_r	hip_rotation_r	knee_angle_r	knee_angle_r_beta	ankle_angle_r	subtalar_angle_r	mtp_angle_r	hip_flexion_l	hip_adduction_l	hip_rotation_l	knee_angle_l	knee_angle_l_beta	ankle_angle_l	subtalar_angle_l	mtp_angle_l	lumbar_extension	lumbar_bending	lumbar_rotation	arm_flex_r	arm_add_r	arm_rot_r	elbow_flex_r	pro_sup_r	arm_flex_l	arm_add_l	arm_rot_l	elbow_flex_l	pro_sup_l
      1.25000000	     -1.30633442	     -0.18325628	     -2.37040544	     -0.03433278	      1.27575753	      0.05813331	      4.24159554	      1.68608035	     -1.86501786	      0.74702525	      0.01303805	     -1.01554309	     12.35818801	     -7.49999987	      3.79511423	      0.59451989	    -13.91961476	      0.45083773	      0.00786860	      2.40727974	     13.17309623	     -7.49999987	      3.13364105	     -0.15293148	     -0.90509587	     -5.32141983	     -3.96834271	      2.18335696	     34.81650373	     92.77333530	     -3.99521201	     -3.00283361	     -3.06504191	     31.35114214	     95.62538522
      1.26666670	     -1.30265109	     -0.17968377	     -2.48909064	     -0.03509480	      1.27678033	      0.05850988	      4.32017299	      1.71631409	     -1.88274495	      0.75044929	      0.01309781	     -0.93914421	     12.54512815	     -7.49999987	      3.80909576	      0.60264275	    -13.93765624	      0.48107765	      0.00839639	      2.38114770	     12.96895453	     -7.49999987	      2.93049017	     -0.05334823	     -0.81739901	     -5.37480789	     -4.12439636	      2.47592823	     35.13300074	     92.18112349	     -3.87129032	     -3.05689996	     -2.51672129	     31.36793361	     95.17803704
      1.28333330	     -1.31360894	     -0.14098979	     -2.63916697	     -0.03392162	      1.27768826	      0.05900175	      4.39133131	      1.70588786	     -2.02238368	      0.77628735	      0.01354877	     -1.04087495	     12.48549943	     -7.49999987	      3.82930789	      0.62204407	    -13.79383688	      0.49960956	      0.00871983	      2.23542794	     12.95756821	     -7.49999987	      2.79277301	     -0.01976485	     -0.73717737	     -5.31788650	     -4.14718250	      2.45498202	     35.16139610	     92.22734626	     -3.85823414	     -3.06717310	     -2.53387485	     31.38423932	     95.23318889
      1.30000000	     -1.31632953	     -0.11484646	     -2.63821796	     -0.03278226	      1.27915497	      0.05860633	      4.41123299	      1.68727417	     -2.13126612	      0.74354869	      0.01297737	     -1.46149139	     12.54710790	     -7.49999987	      3.81053774	      0.64377390	    -13.68461260	      0.52002406	      0.00907613	      1.72403327	     12.74704186	     -7.49999987	      2.65475276	      0.01498357	     -0.73361193	     -5.39937299	     -4.16795747	      2.41011392	     35.22221909	     92.34628340	     -3.75706055	     -3.06409345	     -2.53077023	     31.37781109	     95.38659563
      1.31666670	     -1.34883510	     -0.05953249	     -2.67175806	     -0.03262007	      1.28050343	      0.05858727	      4.42305969	      1.60370552	     -2.01543400	      0.75474224	      0.01317274	     -1.46722859	     12.62366918	     -7.49999987	      3.80731845	      0.72240692	    -13.56544132	      0.56464307	      0.00985488	      1.59789743	     12.76249600	     -7.49999987	      2.59930516	      0.03951102	     -0.78616780	     -5.47593225	     -4.18030506	      2.39945177	     35.21233937	     92.36690254	     -3.72278733	     -3.08318355	     -2.52566131	     31.36449041	     95.41543811
      1.33333330	     -1.30283584	     -0.05214388	     -2.61322674	     -0.03290411	      1.27035820	      0.05998771	      4.33700645	      1.56118647	     -1.49369995	      0.74292579	      0.01296650	     -0.96142051	     12.94566781	     -7.49999987	      3.76525561	      0.76938335	    -12.73873204	      0.58384085	      0.01018995	      1.42493464	     11.71224004	     -7.49999987	      2.36546789	      0.05813838	     -0.86186648	     -5.53489296	     -4.19272481	      2.33781302	     35.57380436	     91.46778959	     -3.62464388	     -3.15002480	     -2.36936573	     31.45795495	     94.50343492
      1.35000000	     -1.32115599	     -0.11590994	     -2.67828883	     -0.03227323	      1.26611303	      0.06030011	      4.36795295	      1.63177399	     -1.56356544	      0.78728863	      0.01374078	     -0.70346249	     12.80669576	     -7.49999987	      3.86447212	      0.68214878	    -12.75811345	      0.59228511	      0.01033733	      2.20984105	     11.96018493	     -7.49999987	      2.27660590	      0.19495607	     -0.38474499	     -5.86793275	     -4.20228564	      1.40742930	     35.81849555	     94.64079161	     -3.14510149	     -3.29019212	     -1.33541413	     30.82802110	     98.43662934
      1.36666670	     -1.39794900	     -0.03411719	     -2.70160101	     -0.03214872	      1.28042674	      0.05941988	      4.41063752	      1.53810907	     -1.54330654	      0.82396992	      0.01438099	     -0.67235631	     12.76638055	     -7.49999987	      3.95824183	      0.72915807	    -12.67758671	      0.59609007	      0.01040373	      2.10210668	     11.98381874	     -7.49999987	      2.28320514	      0.14309241	     -0.54291202	     -5.87926560	     -4.25042740	      1.94768486	     35.78199560	     92.56617848	     -3.15246559	     -3.28424718	     -1.38048094	     30.66382449	     96.25944936
      1.38333330	     -1.48454856	     -0.01506068	     -2.74792114	     -0.03226433	      1.28259411	      0.05959425	      4.46955624	      1.56438951	     -1.52763118	      0.80108083	      0.01398150	     -0.65129073	     13.09456308	     -7.49999987	      4.03857596	      0.70895910	    -12.45423251	      0.61433975	      0.01072225	      1.83590292	     11.54264092	     -7.49999987	      2.26934397	      0.17170407	     -0.37376311	     -6.15482835	     -4.10429310	      0.72217738	     36.00173315	     95.80765917	     -3.06026840	     -3.24446715	     -1.67511326	     30.50780379	     99.05126356
      1.40000000	     -1.49332539	      0.00794167	     -2.88966972	     -0.02986631	      1.27625292	      0.06050747	      4.46382766	      1.57916814	     -1.52217490	      0.76570566	      0.01336408	     -0.57081948	     12.80915549	     -7.49999987	      3.95852951	      0.75172445	    -12.51240471	      0.63704073	      0.01111846	      1.82966600	     11.60558891	     -7.49999987	      2.25701579	      0.17952385	     -0.43959000	     -6.15880304	     -4.18045450	      1.18110617	     35.85158917	     95.71417042	     -3.17647893	     -3.27736243	     -1.68674042	     30.48477740	     99.03602841
      1.41666670	     -1.53980558	      0.05863623	     -2.97409466	     -0.02967956	      1.27656136	      0.05937735	      4.58177460	      1.54051235	     -1.89295391	      0.69888901	      0.01219791	     -0.38150599	     13.08509479	     -7.49999987	      3.97717091	      0.83553305	    -12.42360504	      0.66015372	      0.01152186	      1.83241367	     11.53101081	     -7.49999987	      2.24562692	      0.17751060	     -0.26809175	     -6.43756489	     -4.14398058	      0.67135279	     36.08526387	     95.94778734	     -3.10011782	     -3.25284479	     -1.51009355	     30.24439805	     99.06839526
